<?xml version="1.0" encoding="UTF-8" standalone="no"?>
<!-- Created with Inkscape (http://www.inkscape.org/) -->

<svg
   width="256"
   height="256"
   viewBox="0 0 67.733332 67.733335"
   version="1.1"
   id="svg24"
   sodipodi:docname="pluginIcon.svg"
   inkscape:version="1.1.2 (0a00cf5339, 2022-02-04, custom)"
   inkscape:export-filename="C:\Users\marti\Downloads\pluginIcon.png"
   inkscape:export-xdpi="96"
   inkscape:export-ydpi="96"
   xmlns:inkscape="http://www.inkscape.org/namespaces/inkscape"
   xmlns:sodipodi="http://sodipodi.sourceforge.net/DTD/sodipodi-0.dtd"
   xmlns="http://www.w3.org/2000/svg"
   xmlns:svg="http://www.w3.org/2000/svg">
  <sodipodi:namedview
     id="namedview26"
     pagecolor="#ffffff"
     bordercolor="#666666"
     borderopacity="1.0"
     inkscape:pageshadow="2"
     inkscape:pageopacity="0.0"
     inkscape:pagecheckerboard="0"
     inkscape:document-units="mm"
     showgrid="false"
     units="px"
     inkscape:zoom="2.1997092"
     inkscape:cx="234.80376"
     inkscape:cy="100.01322"
     inkscape:window-width="2560"
     inkscape:window-height="1369"
     inkscape:window-x="-8"
     inkscape:window-y="-8"
     inkscape:window-maximized="1"
     inkscape:current-layer="layer1" />
  <defs
     id="defs21" />
  <g
     inkscape:label="Layer 1"
     inkscape:groupmode="layer"
     id="layer1"
     style="display:inline">
    <path
       style="fill:#000000;stroke-width:0.264583"
       d="m 29.303951,59.087073 c -0.06004,-0.181901 -0.537485,-1.987192 -1.060995,-4.011758 -1.155673,-4.469328 -0.938122,-4.124102 -2.599165,-4.124541 -6.487032,-0.0016 -9.909078,-2.369802 -8.611193,-5.959038 0.264945,-0.732695 0.227638,-0.939366 -0.297881,-1.65017 -0.422097,-0.570917 -0.564923,-1.056743 -0.480257,-1.633606 0.07248,-0.493868 -0.01968,-0.937373 -0.231286,-1.112993 -0.212473,-0.176334 -0.351788,-0.852731 -0.351788,-1.707973 0,-1.303964 -0.06246,-1.448316 -0.789272,-1.824167 -1.989869,-1.029002 -2.100305,-3.327051 -0.254408,-5.293982 1.596034,-1.700686 2.678132,-3.876105 2.500572,-5.027083 -1.211704,-7.854492 3.326915,-16.42315 9.787899,-18.4790041 7.566355,-2.407576 19.151755,-0.162321 23.956943,4.6428661 3.989493,3.989493 5.971568,12.212065 4.20665,17.451143 -0.503423,1.494393 -2.726174,5.740029 -3.163361,6.042287 -2.078104,1.436724 -3.636685,7.332347 -2.904162,10.985533 0.174487,0.870196 0.334409,1.796111 0.355383,2.057591 0.05317,0.662993 0.201729,0.586115 -14.985169,7.7549 -5.190407,2.450068 -4.926118,2.351712 -5.07851,1.889995 z m 3.605152,-3.074966 c 2.146612,-0.995442 6.101873,-2.870231 11.939997,-5.659546 2.060247,-0.984337 2.811131,-1.468109 2.705594,-1.743135 -1.351727,-3.522546 -0.563578,-7.659428 2.311525,-12.132865 3.924977,-6.106956 4.026164,-6.378932 4.015562,-10.793132 C 53.858501,15.989975 49.50801,11.301425 38.776921,9.4048169 28.160589,7.5284919 22.584968,10.360212 19.475865,19.207347 c -1.288622,3.666848 -1.29347,3.716631 -0.737416,7.571904 0.204194,1.415735 -0.395891,2.776678 -2.366266,5.366491 -0.822001,1.080418 -1.494547,2.142603 -1.494547,2.360416 0,0.488879 0.763802,1.363729 1.190625,1.363729 0.720806,0 1.274851,1.049867 1.229546,2.329886 -0.03878,1.095756 0.06384,1.373733 0.749792,2.030913 0.752049,0.72051 0.770799,0.787834 0.34917,1.25373 -0.417717,0.461571 -0.41759,0.539679 0.002,1.250038 0.521863,0.883443 0.564816,1.716018 0.14993,2.906159 -0.756942,2.171366 1.083803,3.241611 5.853906,3.403576 3.908404,0.132704 4.004411,0.1876 4.641017,2.653646 0.652941,2.529319 1.482343,5.338718 1.576117,5.338718 0.0441,0 1.074298,-0.461 2.289334,-1.024446 z M 26.569526,38.244356 c -2.374682,-1.447806 -2.170325,-2.667021 1.650684,-9.848173 3.162435,-5.943436 4.232447,-10.804361 2.664717,-12.105462 -1.655546,-1.373981 -0.144643,-2.38125 3.571874,-2.38125 3.716518,0 5.227421,1.007269 3.571875,2.38125 -1.571535,1.304258 -0.496517,6.182598 2.669575,12.114329 3.816826,7.150888 4.023989,8.389378 1.645827,9.839306 -1.3457,0.820449 -14.428853,0.820449 -15.774552,0 z M 41.684091,37.41417 c 1.575337,-0.839031 1.489665,-3.432807 -0.177726,-5.380741 -0.124563,-0.145521 -0.481751,-0.797933 -0.79375,-1.449803 -0.836364,-1.747438 -3.339597,-1.891929 -5.979856,-0.345167 -1.345914,0.788484 -4.420348,1.136168 -5.798497,0.655743 -0.69868,-0.243562 -0.824272,-0.213678 -0.964964,0.229608 -0.08896,0.280286 -0.302773,0.659143 -0.475142,0.841907 -1.709259,1.812332 -1.866828,4.545792 -0.313396,5.436684 0.743511,0.426405 13.705077,0.43692 14.503331,0.01177 z M 28.489429,35.58225 c -0.09777,-0.158202 -0.05032,-0.415091 0.105463,-0.57087 0.330173,-0.330173 1.189098,0.234754 0.948589,0.623904 -0.201382,0.325845 -0.839742,0.293727 -1.054052,-0.05303 z m 1.734039,-0.24153 c 0,-0.528169 0.117057,-0.53894 5.093229,-0.468733 4.31899,0.06093 5.093229,0.132189 5.093229,0.468733 0,0.336545 -0.774239,0.4078 -5.093229,0.468733 -4.976172,0.07021 -5.093229,0.05944 -5.093229,-0.468733 z m 4.64902,-6.319964 c 0.971921,-0.454816 2.395641,-0.900806 3.163822,-0.991092 1.396698,-0.164153 1.396698,-0.164153 -0.03307,-2.86555 -1.429769,-2.701396 -1.429769,-2.701396 -1.429769,-5.494503 0,-2.303893 -0.07337,-2.821262 -0.418878,-2.953846 -0.634071,-0.243317 -0.297928,-0.804618 0.572998,-0.956809 2.134817,-0.37305 0.781375,-0.923443 -2.270787,-0.923443 -3.052161,0 -4.405603,0.550393 -2.270786,0.923443 0.870926,0.152191 1.207069,0.713492 0.572998,0.956809 -0.34552,0.132588 -0.418878,0.650008 -0.418878,2.954467 0,2.79373 0,2.79373 -1.852083,6.31433 -2.128557,4.046143 -2.024991,3.725323 -1.256771,3.89319 1.486133,0.324742 3.899302,-0.04186 5.641207,-0.856996 z m -3.273186,-1.405869 c -0.40929,-0.409289 -0.40929,-1.601544 0,-2.010833 0.174625,-0.174625 0.627062,-0.3175 1.005416,-0.3175 0.378354,0 0.830792,0.142875 1.005417,0.3175 0.174625,0.174625 0.3175,0.627063 0.3175,1.005417 0,1.19218 -1.495698,1.838052 -2.328333,1.005416 z m 1.534583,-1.005416 c 0,-0.145521 -0.178594,-0.264584 -0.396875,-0.264584 -0.218281,0 -0.396875,0.119063 -0.396875,0.264584 0,0.145521 0.178594,0.264583 0.396875,0.264583 0.218281,0 0.396875,-0.119062 0.396875,-0.264583 z m 2.827734,-0.700043 c -0.345043,-0.345043 -0.180311,-0.622874 0.369313,-0.622874 0.307909,0 0.504987,0.138686 0.446485,0.314193 -0.128881,0.386646 -0.570669,0.55381 -0.815798,0.308681 z m -1.91594,-3.027177 c -0.272659,-0.441172 0.340574,-0.947079 0.705569,-0.582084 0.305308,0.305309 0.114226,0.869721 -0.294447,0.869721 -0.128344,0 -0.313348,-0.129437 -0.411122,-0.287637 z"
       id="path5188" />
    <path
       style="fill:#00ffff;stroke-width:0.454606"
       d="m 108.0378,141.82493 c -5.30455,-0.37411 -6.45039,-0.92411 -7.9515,-3.81668 -2.230156,-4.2974 -1.095766,-10.08906 3.10194,-15.83704 1.37915,-1.8885 2.50755,-3.61835 2.50755,-3.84411 0,-0.22577 0.25887,-0.76451 0.57526,-1.1972 0.5423,-0.74165 0.74413,-0.74326 3.52319,-0.0283 2.30187,0.59222 4.0937,0.69979 8.1759,0.4908 6.25879,-0.32041 9.0351,-1.02492 14.63668,-3.71417 7.44006,-3.57189 12.85493,-4.25518 16.99131,-2.14411 2.18942,1.11741 2.94792,1.95387 4.41806,4.87216 0.62979,1.25017 2.26374,3.94883 3.63101,5.99702 3.92543,5.88038 4.8751,10.99247 2.8391,15.28301 -1.37244,2.89221 -2.71794,3.50193 -8.76045,3.96988 -6.18866,0.47928 -36.75911,0.45737 -43.68805,-0.0313 z m 3.14314,-6.36847 c 1.17679,-0.6298 1.11329,-2.04161 -0.13104,-2.91317 -1.48508,-1.04019 -3.03893,-0.89989 -3.4906,0.31518 -0.48848,1.31408 -0.16183,2.13719 1.04101,2.62321 1.29645,0.52384 1.5595,0.52127 2.58063,-0.0252 z m 40.54366,-0.79853 c 1.41656,-0.59691 1.64069,-1.65434 0.45461,-2.14482 -1.14275,-0.47255 -23.30447,-1.22841 -30.62551,-1.04452 -6.44532,0.16189 -7.67501,0.51734 -7.67501,2.21852 0,0.45702 0.358,1.05057 0.79556,1.31899 1.13103,0.69383 35.34042,0.37236 37.05035,-0.34817 z"
       id="path5440"
       transform="scale(0.26458333)" />
    <path
       style="fill:#00ffff;fill-opacity:1;stroke-width:0.909211"
       d="m 109.65517,111.98705 c -0.25668,-0.41531 2.4809,-6.57518 6.08351,-13.688588 l 6.55021,-12.933468 0.30608,-10.178201 c 0.22801,-7.581986 0.66588,-10.579706 1.71661,-11.752265 1.147,-1.280001 1.19642,-1.832036 0.26449,-2.954936 -0.63031,-0.759479 -1.89006,-1.380871 -2.79945,-1.380871 -3.16987,0 -2.6086,-1.59053 0.75763,-2.146988 7.11968,-1.176925 19.77644,-0.26435 18.77636,1.35381 -0.26961,0.436248 -1.20615,0.793178 -2.08119,0.793178 -0.87505,0 -2.38519,0.613717 -3.35589,1.363816 -1.66563,1.287114 -1.67607,1.43289 -0.18553,2.591968 1.26956,0.987241 1.69976,3.336117 2.19313,11.974473 0.59796,10.469521 0.72727,10.978431 5.02045,19.757526 2.42368,4.956163 4.17435,9.387126 3.89039,9.846596 -0.28397,0.45946 -1.43744,0.83539 -2.56327,0.83539 -1.12583,0 -6.72743,1.63224 -12.44799,3.6272 -7.76532,2.70805 -11.82744,3.62965 -16.02994,3.63685 -3.0959,0.005 -5.83892,-0.33017 -6.0956,-0.74549 z m 16.76704,-7.27885 c 2.31382,-1.87362 2.74907,-7.155006 0.69691,-8.456396 -1.77875,-1.128006 -6.58425,-0.939966 -7.83063,0.306414 -1.7103,1.710303 -1.3686,7.749042 0.50007,8.837442 2.36868,1.37963 4.3322,1.17614 6.63365,-0.68746 z m 12.52645,-7.725259 c 0.21302,-1.098363 -0.35033,-1.515777 -2.04572,-1.515777 -2.54902,0 -2.95512,0.839317 -1.23728,2.557157 1.39723,1.397231 2.90267,0.919699 3.283,-1.04138 z M 132.19589,86.74761 c 0.74475,-1.940795 -0.0901,-3.10019 -2.23236,-3.10019 -1.10515,0 -1.76477,0.623035 -1.76477,1.666887 0,3.027757 2.9758,4.09483 3.99713,1.433303 z"
       id="path40951"
       transform="scale(0.26458333)" />
    <path
       style="fill:#00ffff;fill-opacity:1"
       d="m 105.46849,141.07349 c -2.49876,-0.47143 -3.53569,-1.32352 -4.82787,-3.96728 -1.994018,-4.07969 -1.262251,-7.6352 3.02851,-14.71492 l 2.83019,-4.66979 9.2586,-0.008 c 8.42852,-0.008 9.86997,-0.27313 16.07769,-2.96131 15.05287,-6.51848 18.83617,-4.91554 27.22955,11.53685 2.868,5.62173 2.05746,12.5791 -1.66749,14.31322 -1.85489,0.86353 -47.64757,1.27942 -51.92918,0.47162 z m 6.11158,-5.71183 c 1.53667,-1.53667 0.34204,-3.52605 -2.11741,-3.52605 -1.50368,0 -2.17575,0.51489 -2.17575,1.66688 0,2.8729 2.28842,3.86391 4.29316,1.85917 z m 41.10022,-1.17208 c 0.63495,-0.76508 0.71909,-1.49646 0.20845,-1.81205 -1.37312,-0.84864 -32.16897,-1.78556 -35.86975,-1.09129 -2.51997,0.47275 -3.3676,1.0791 -3.3676,2.40899 0,1.70674 0.75282,1.77722 18.9821,1.77722 15.23148,0 19.19247,-0.25348 20.0468,-1.28287 z"
       id="path60189"
       transform="scale(0.26458333)" />
    <path
       style="fill:#fd3c65;fill-opacity:1;stroke-width:0.909211"
       d="m 105.46849,141.07349 c -2.49876,-0.47143 -3.53569,-1.32352 -4.82787,-3.96728 -1.993283,-4.07819 -1.262235,-7.63523 3.02204,-14.70425 l 2.82373,-4.65912 9.26507,-0.0446 c 8.39047,-0.0404 9.90876,-0.32319 16.08415,-2.99576 8.83215,-3.82235 14.0875,-4.46387 17.72961,-2.16426 3.53723,2.23339 11.36503,15.96483 11.36509,19.93653 6e-5,3.58777 -1.57742,7.21689 -3.53264,8.12713 -1.85489,0.86353 -47.64757,1.27942 -51.92918,0.47162 z m 6.11158,-5.71183 c 1.53667,-1.53667 0.34204,-3.52605 -2.11741,-3.52605 -1.50368,0 -2.17575,0.51489 -2.17575,1.66688 0,2.8729 2.28842,3.86391 4.29316,1.85917 z m 41.15846,-1.24227 c 0.90881,-1.09504 0.84616,-1.45926 -0.32857,-1.91005 -2.05954,-0.79032 -37.54121,-0.96217 -38.3302,-0.18564 -0.35916,0.35348 -0.41074,1.27406 -0.11463,2.04572 0.79007,2.05889 37.06735,2.10565 38.7734,0.05 z"
       id="path60228"
       transform="scale(0.26458333)" />
    <path
       style="fill:#fd3c65;fill-opacity:1;stroke-width:0.227303"
       d="m 153.26625,116.41768 c -2.72584,-3.86523 -4.59084,-5.0584 -8.16377,-5.22293 -2.50946,-0.11556 -4.76933,0.29633 -8.58458,1.56466 -1.48778,0.49459 -2.7453,0.85901 -2.79448,0.80983 -0.15319,-0.15319 3.89577,-1.69639 5.76557,-2.19747 2.26515,-0.60703 5.67996,-0.8204 7.39849,-0.46228 1.79617,0.3743 3.74921,1.40048 4.87439,2.56113 0.90043,0.92884 2.74077,3.95662 2.53187,4.16553 -0.0543,0.0542 -0.51663,-0.49406 -1.02749,-1.21847 z"
       id="path64280"
       transform="scale(0.26458333)" />
    <path
       style="fill:#fd3c65;fill-opacity:1;stroke-width:0.0803637"
       d="m 119.90259,142.10835 c -3.09588,-0.0293 -9.42062,-0.18621 -10.92946,-0.27107 -5.95089,-0.33468 -7.29306,-0.90283 -8.76015,-3.70822 -0.860601,-1.64565 -1.158109,-2.89701 -1.161669,-4.8861 -0.0043,-2.37843 0.502591,-4.43098 1.716569,-6.95146 0.6989,-1.45106 1.3171,-2.47248 2.5779,-4.25927 1.7438,-2.47129 2.4128,-3.52643 2.4128,-3.80539 0,-0.2257 0.5174,-1.06972 0.82749,-1.34987 0.31377,-0.28347 0.33309,-0.28922 0.81974,-0.24377 0.27412,0.0256 1.19083,0.21261 2.03714,0.41559 0.84631,0.20298 1.8553,0.41833 2.24219,0.47855 l 0.70345,0.1095 -0.93124,0.008 c -0.51218,0.004 -1.8546,0.0315 -2.98315,0.0606 l -2.05191,0.0528 -1.73077,2.86039 c -2.53982,4.19745 -3.44403,5.87685 -4.18213,7.76742 -1.066986,2.73297 -1.223647,5.09906 -0.48523,7.32851 0.49604,1.49766 1.60129,3.39028 2.38156,4.07813 0.23077,0.20344 0.7089,0.51293 1.0625,0.68776 1.88285,0.93093 3.3702,1.00098 21.17583,0.99739 12.28186,-0.002 17.12673,-0.0588 24.1091,-0.28015 4.25658,-0.13495 6.8682,-0.27881 8.22166,-0.45289 1.67004,-0.2148 3.42404,-3.20719 3.87789,-6.61583 0.21693,-1.62926 0.11705,-2.57143 -0.45384,-4.28104 -0.96196,-2.88069 -3.41127,-7.65913 -5.83085,-11.37558 -0.56563,-0.8688 -0.70441,-1.12576 -0.49479,-0.91614 0.16544,0.16544 0.32145,0.11651 0.26901,-0.0844 -0.0634,-0.24282 -0.0622,-0.24092 1.10687,1.70773 0.54359,0.9061 1.42312,2.31648 1.95451,3.13418 1.15244,1.77337 1.46034,2.2983 2.10952,3.59651 0.96262,1.925 1.57862,3.75606 1.82264,5.41776 0.19677,1.33991 0.12591,3.34471 -0.158,4.47048 -0.604,2.39498 -1.75651,4.15298 -3.1828,4.85492 -1.39457,0.68632 -3.92013,1.07114 -8.31764,1.26735 -4.40587,0.19658 -19.08388,0.28917 -29.77474,0.18783 z"
       id="path64319"
       transform="scale(0.26458333)" />
    <path
       style="fill:#fd3c65;fill-opacity:1;stroke-width:0.0284128"
       d="m 116.94728,117.65612 c 6.8943,-0.31391 9.6282,-0.9355 14.8315,-3.37214 0.38287,-0.17929 0.9948,-0.46572 1.35986,-0.63651 3.60964,-1.68882 6.70734,-2.6706 9.39441,-2.97747 2.86083,-0.32672 5.17736,0.0626 7.35764,1.23643 0.90943,0.48963 1.43971,0.86493 1.96211,1.38861 0.68584,0.68755 1.17534,1.43338 2.05201,3.1266 0.21845,0.42193 0.42455,0.8119 0.45799,0.86659 0.0763,0.12485 0.0781,0.16632 0.004,0.0995 -0.0549,-0.0497 -0.0569,-0.0496 -0.0591,0.003 -0.002,0.04 -0.006,0.043 -0.0177,0.0115 -0.28273,-0.78128 -1.48749,-2.72073 -2.28621,-3.68038 -0.94987,-1.14126 -2.86817,-2.25423 -4.69765,-2.72551 -0.81938,-0.21107 -1.29124,-0.25643 -2.6566,-0.25535 -1.16704,9.2e-4 -1.70675,0.0341 -2.77763,0.17079 -1.57072,0.20048 -2.50057,0.42826 -4.33979,1.06309 -1.56548,0.54035 -3.21413,1.19312 -3.67236,1.45404 -0.1413,0.0804 -0.1972,0.166 -0.10846,0.166 0.14545,0 1.43347,-0.38174 2.82899,-0.83845 2.52741,-0.82713 4.09798,-1.22172 5.70719,-1.43385 0.24013,-0.0316 0.48945,-0.0555 0.55405,-0.053 0.11324,0.004 0.11388,0.005 0.018,0.0152 -1.22433,0.13119 -2.83027,0.47236 -4.39127,0.93289 -1.96812,0.58065 -3.91268,1.30746 -6.86021,2.56413 -2.2588,0.96303 -3.134,1.30684 -4.30769,1.69226 -2.66259,0.87432 -4.81036,1.13562 -9.8135,1.1939 -0.83424,0.01 -0.9514,0.007 -0.53984,-0.0115 z"
       id="path64397"
       transform="scale(0.26458333)" />
    <path
       style="fill:#fd3c65;fill-opacity:1;stroke-width:0.113651"
       d="m 122.8807,101.30108 c -1.08411,-0.53431 -0.51995,-1.627393 0.84044,-1.628389 0.80743,-5.92e-4 1.35221,0.365539 1.35221,0.908789 0,0.3152 -0.073,0.43794 -0.38617,0.64897 -0.46481,0.31323 -1.25179,0.344 -1.80648,0.0706 z"
       id="path64510"
       transform="scale(0.26458333)" />
    <path
       style="fill:#ffffff;fill-opacity:1;stroke-width:0.454606"
       d="m 114.42195,211.05062 c -0.65367,-2.18778 -2.22995,-7.74141 -3.50286,-12.34139 -1.2729,-4.59998 -2.60041,-8.91677 -2.95003,-9.59286 -1.45417,-2.81205 -3.69232,-3.38975 -15.714897,-4.05622 -11.881421,-0.65865 -17.492805,-2.00027 -20.52963,-4.90841 -2.128809,-2.0386 -2.370666,-3.63007 -1.230807,-8.09896 1.195258,-4.68608 1.020406,-7.1601 -0.763042,-10.79648 l -1.247403,-2.54341 1.217592,-1.75698 c 0.669676,-0.96635 1.217592,-1.91167 1.217592,-2.10072 0,-0.18905 -1.030443,-1.43327 -2.289873,-2.76493 -2.579675,-2.72763 -3.165393,-4.25427 -3.165393,-8.25042 0,-1.52704 -0.232408,-3.47183 -0.516462,-4.32175 -0.633896,-1.89669 -2.559501,-4.04564 -3.625161,-4.04564 -1.0534,0 -3.454581,-2.06274 -4.296583,-3.69099 -0.867605,-1.67777 -0.781429,-1.84525 5.45544,-10.6025 8.184375,-11.49176 9.341697,-14.73529 8.161134,-22.872507 -1.512196,-10.423055 -1.107269,-13.624205 3.236958,-25.589786 4.2083,-11.591189 8.799159,-19.439284 15.032908,-25.698831 12.371637,-12.42283 29.963957,-15.923435 56.843747,-11.311039 30.08567,5.162505 46.73472,16.164623 53.62219,35.434919 3.08621,8.634834 3.5615,12.132146 3.58394,26.371173 0.0193,12.256071 -0.0203,12.847171 -1.06597,15.911191 -1.76476,5.17096 -3.36221,8.06597 -11.71627,21.23313 -7.10999,11.20635 -11.06843,20.18085 -12.45365,28.23468 -0.80015,4.65214 -0.34055,14.36309 0.85326,18.02894 l 0.95833,2.94276 -1.00677,1.07857 c -1.1222,1.20222 -9.04542,5.14952 -34.87489,17.37446 -19.46552,9.21293 -27.07803,12.7118 -27.65707,12.7118 -0.21331,0 -0.92266,-1.79001 -1.57633,-3.9778 z m 25.82386,-64.20787 c 12.12862,-0.44266 17.82895,-1.04436 19.86409,-2.09678 1.863,-0.96339 4.41062,-3.31853 5.16244,-4.77237 1.04591,-2.02257 0.81746,-6.32549 -0.55654,-10.4828 -0.66837,-2.02229 -4.81478,-10.86291 -9.21424,-19.64582 -10.47012,-20.902155 -13.45509,-29.075258 -13.98034,-38.279449 -0.31751,-5.563741 0.13184,-7.171514 2.86417,-10.247979 2.47026,-2.781379 2.62822,-4.335011 0.61311,-6.03061 -2.54286,-2.13967 -9.3706,-3.246829 -17.48164,-2.83475 -12.39488,0.629718 -16.13292,3.551295 -11.38443,8.897846 2.57862,2.903382 3.15462,4.988576 2.8315,10.250335 -0.55933,9.108454 -3.88544,18.179253 -14.1697,38.642917 -4.27274,8.50191 -8.323838,17.13796 -9.002445,19.19121 -1.392674,4.21379 -1.626871,8.50529 -0.575146,10.5391 0.752938,1.45602 3.300186,3.80936 5.169611,4.77608 1.94843,1.00757 8.03725,1.70504 18.03849,2.06628 5.00067,0.18062 9.39897,0.35387 9.77402,0.38499 0.37505,0.0311 5.79622,-0.13006 12.04705,-0.3582 z"
       id="path64716"
       transform="scale(0.26458333)" />
  </g>
</svg>
